<svg version="1" xmlns="http://www.w3.org/2000/svg" width="170.667" height="170.667" viewBox="0 0 128.000000 128.000000"><path d="M48.2 8.6c-9.4 2-15.5 5.8-24.1 15.1C10.6 38.2 5 50.4 4.5 66.5c-.6 15.5 3.3 25.4 13.9 36 5.6 5.5 9.2 8 16.9 11.8 12.4 6 19.1 7.8 29.2 7.8 16.3.1 30.5-5.9 42.3-18.1 22-22.6 22.2-57 .5-78.6-8.8-8.8-20.1-14.8-31.8-17-6.9-1.2-20.7-1.1-27.3.2zm29.9 5.8c12.2 3.5 25.4 15 31.3 27 14.6 30 .1 60.2-32.8 68.6-23 5.8-48.1-5.3-58.6-26-6.5-12.8-7.5-22.4-3.6-33.9 3.1-9.2 6.4-14.7 13-21.8 13-14 32.3-19.3 50.7-13.9zM115.5 40c6.6 13.1 7.6 27.7 2.9 41.7-4.3 12.5-16.9 26.5-29.6 32.7-7.3 3.5-16.7 6.2-19.1 5.3-.6-.2 1-.7 3.8-1.1 14.5-2.2 32.2-15.2 39.6-29 4.7-8.7 5.9-14.6 5.5-26.6-.2-8.9-.8-11.7-3.4-18.5-1.8-4.4-4.3-9.7-5.7-11.7-1.4-2-2.5-4-2.5-4.4 0-1.3 6.2 7.2 8.5 11.6zM11.6 46.9c-.3.5-.8 2.8-1.1 5.2-.3 2.4-.9 6.6-1.3 9.4-2.1 13.6 1.6 27.2 10.4 38.2 3.5 4.3 3.9 5 1.5 2.8-5.1-4.7-9.6-11.4-12.1-18-3-7.8-3.3-22.3-.6-30.5.9-3 1.9-6.1 2.1-6.8.3-.6.7-1.2 1-1.2.4 0 .4.4.1.9zm5.8 40.9c2.5 4.8 10.4 12.9 16.7 17.1 15.9 10.6 38 11.6 56.2 2.5 2.9-1.5 6.1-3.4 7.2-4.3 1.5-1.1 1.4-.9-.3 1.1-3.3 3.6-12.3 8.3-20.8 10.6-15.8 4.4-35 .5-47.8-9.7-4.8-3.8-10.5-12.1-12.9-18.4-1-2.7.1-2 1.7 1.1z"/></svg>